# xmcd
#
# Track frame offsets: 
#        150
#        12950
#        25493
#        38159
#        53078
#        66759
#        80450
#        93791
#        107682
#        118559
#        130224
#        143029
#        155836
#        167016
#        182970
#        197074
#        211674
#        225558
#        237444
#        250015
#        259436
#        271110
#        285300
#
# Disc length: 3959 seconds
#
# Revision: 1
# Processed by: cddbd v1.5.2PL0 Copyright (c) Steve Scherf et al.
# Submitted via: ExactAudioCopy v0.99pb5
#
DISCID=3b0f7517
DTITLE=Various Artist - Mr Bongo Latin Beats Boxset CD5 Cuban Classics
DYEAR=2009
DGENRE=Salsa
TTITLE0=A Si Pare - Don Barreto
TTITLE1=Beguin Beguine - Don Barreto
TTITLE2=Cecillia Mia - Don Barreto
TTITLE3=Cocktails For Two - Don Barreto
TTITLE4=Lamento Cubano - Don Barreto
TTITLE5=Marta - Don Barreto
TTITLE6=Melody's Bar - Don Barreto
TTITLE7=Nuestro Cantar - Don Barreto
TTITLE8=Oh Miss Lisa - Don Barreto
TTITLE9=Ojos Verdes - Don Barreto
TTITLE10=Oprobio - Don Barreto
TTITLE11=Amor Cubano - Don Barreto
TTITLE12=Conga de la Havana (Ay Si- Ay No) - Don Aspiazu and The Havana 
TTITLE12=Casino Orchestra
TTITLE13=El Manisero - Don Aspiazu and The Havana Casino Orchestra
TTITLE14=Lamento Africano - Don Aspiazu and The Havana Casino Orchestra
TTITLE15=Mariana (The Peanut's Vendor's Daughter) - Don Aspiazu and The 
TTITLE15=Havana Casino Orchestra
TTITLE16=Me Odias - Don Aspiazu and The Havana Casino Orchestra
TTITLE17=Cachita - Lecuona Cuban Boys
TTITLE18=Cafunga - Lecuona Cuban Boys
TTITLE19=Conga de la Havana - Lecuona Cuban Boys
TTITLE20=La Havana et Paris - Lecuona Cuban Boys
TTITLE21=La Paloma - Cielito Lindo - Lecuona Cuban Boys
TTITLE22=Para Vigo Me Voy  - Lecuona Cuban Boys
EXTD=YEAR: 2009
EXTT0=
EXTT1=
EXTT2=
EXTT3=
EXTT4=
EXTT5=
EXTT6=
EXTT7=
EXTT8=
EXTT9=
EXTT10=
EXTT11=
EXTT12=
EXTT13=
EXTT14=
EXTT15=
EXTT16=
EXTT17=
EXTT18=
EXTT19=
EXTT20=
EXTT21=
EXTT22=
PLAYORDER=
